<svg width="12" height="12" viewBox="0 0 12 12" fill="none" xmlns="http://www.w3.org/2000/svg">
<path d="M11.8833 4.8249H11.4V4.8H6V7.2H9.3909C8.8962 8.5971 7.5669 9.6 6 9.6C4.0119 9.6 2.4 7.9881 2.4 6C2.4 4.0119 4.0119 2.4 6 2.4C6.9177 2.4 7.7526 2.7462 8.3883 3.3117L10.0854 1.6146C9.0138 0.6159 7.5804 0 6 0C2.6865 0 0 2.6865 0 6C0 9.3135 2.6865 12 6 12C9.3135 12 12 9.3135 12 6C12 5.5977 11.9586 5.205 11.8833 4.8249Z" fill="#FFC107"/>
<path d="M0.691809 3.2073L2.66311 4.653C3.19651 3.3324 4.4883 2.4 6 2.4C6.9177 2.4 7.7526 2.7462 8.3883 3.3117L10.0854 1.6146C9.0138 0.6159 7.5804 0 6 0C3.6954 0 1.69681 1.3011 0.691809 3.2073Z" fill="#FF3D00"/>
<path d="M6 12C7.5498 12 8.95798 11.4069 10.0227 10.4424L8.16568 8.87101C7.54305 9.34452 6.78224 9.60062 6 9.6C4.4394 9.6 3.11428 8.60491 2.61508 7.21621L0.658484 8.7237C1.65148 10.6668 3.6681 12 6 12Z" fill="#4CAF50"/>
<path d="M11.8833 4.8249H11.4V4.8H6V7.2H9.3909C9.15426 7.86492 8.72801 8.44595 8.1648 8.8713L8.1657 8.8707L10.0227 10.4421C9.8913 10.5615 12 9 12 6C12 5.5977 11.9586 5.205 11.8833 4.8249Z" fill="#1976D2"/>
</svg>
