<svg width="40" height="40" viewBox="0 0 40 40" fill="none" xmlns="http://www.w3.org/2000/svg">
<path d="M28.2109 30.7315H28.3765L28.5093 30.8303L39.5 39.005V0.5H0.5V30.7315H28.2109Z" fill="white" stroke="black"/>
<path d="M29.3869 18.6351C27.8223 18.6351 26.554 17.3668 26.554 15.8024C26.554 14.238 27.8223 12.9697 29.3869 12.9697C30.9514 12.9697 32.2197 14.238 32.2197 15.8024C32.2197 17.3668 30.9514 18.6351 29.3869 18.6351Z" fill="black"/>
<path d="M19.9992 18.6351C18.4346 18.6351 17.1663 17.3668 17.1663 15.8024C17.1663 14.238 18.4346 12.9697 19.9992 12.9697C21.5637 12.9697 22.832 14.238 22.832 15.8024C22.832 17.3668 21.5637 18.6351 19.9992 18.6351Z" fill="black"/>
<path d="M10.6115 18.6351C9.04692 18.6351 7.7786 17.3668 7.7786 15.8024C7.7786 14.238 9.04692 12.9697 10.6115 12.9697C12.176 12.9697 13.4443 14.238 13.4443 15.8024C13.4443 17.3668 12.176 18.6351 10.6115 18.6351Z" fill="black"/>
</svg>
